<svg width="45" height="45" viewBox="0 0 45 45" fill="none" xmlns="http://www.w3.org/2000/svg">
<circle opacity="0.05" cx="22.5" cy="22.5" r="22.5" fill="#16C98D"/>
<g clip-path="url(#clip0)">
<path d="M31.9968 23C31.9968 27.9709 27.9685 32 23 32C18.0315 32 14.0032 27.9709 14.0032 23C14.0032 18.0291 18.0315 14 23 14C27.9685 14 31.9968 18.0291 31.9968 23Z" stroke="#16C98D" stroke-width="2"/>
<path d="M17.3481 23.1984L21.3915 27.2418C21.5678 27.4181 21.8538 27.4181 22.0301 27.2418L28.6682 20.6037C28.8446 20.4273 28.8446 20.1414 28.6682 19.965L27.46 18.7568C27.2836 18.5804 26.9977 18.5804 26.8214 18.7568L21.9932 23.5849C21.8168 23.7612 21.5309 23.7612 21.3545 23.5849L19.1909 21.4212C19.018 21.2483 18.7389 21.2444 18.5613 21.4124L17.3571 22.5509C17.1723 22.7257 17.1682 23.0185 17.3481 23.1984Z" fill="#16C98D"/>
<path d="M27.46 18.7568C27.2837 18.5804 26.9977 18.5804 26.8214 18.7568L22.9864 22.5917V26.2855L28.6683 20.6037C28.8446 20.4273 28.8446 20.1414 28.6683 19.965L27.46 18.7568Z" fill="#16C98D"/>
</g>
<defs>
<clipPath id="clip0">
<rect width="20" height="20" fill="white" transform="translate(13 13)"/>
</clipPath>
</defs>
</svg>
