<svg xmlns="http://www.w3.org/2000/svg" width="30.524" height="21" viewBox="0 0 30.524 21"><defs><style>.a{fill:#001409;stroke:#001409;}</style></defs><path class="a" d="M18.578,11.635a1.376,1.376,0,0,1,.01,1.917l-6.225,6.343h23.72a1.354,1.354,0,0,1,0,2.708H12.363L18.6,28.946a1.386,1.386,0,0,1-.01,1.917,1.313,1.313,0,0,1-1.877-.01l-8.45-8.645h0a1.523,1.523,0,0,1-.277-.427,1.31,1.31,0,0,1-.1-.521,1.369,1.369,0,0,1,.379-.948l8.45-8.645A1.292,1.292,0,0,1,18.578,11.635Z" transform="translate(-7.382 -10.752)"/></svg>