<svg width="20" height="20" viewBox="0 0 20 20" fill="none" xmlns="http://www.w3.org/2000/svg">
<path d="M14.125 8.52515L9.40835 13.2418C9.08335 13.5668 8.55835 13.5668 8.23335 13.2418L5.87502 10.8835C5.55002 10.5585 5.55002 10.0335 5.87502 9.70848C6.20002 9.38348 6.72502 9.38348 7.05002 9.70848L8.81669 11.4752L12.9417 7.35015C13.2667 7.02515 13.7917 7.02515 14.1167 7.35015C14.45 7.67515 14.45 8.20015 14.125 8.52515ZM3.33335 10.0002C3.33335 8.05849 4.18335 6.31682 5.51669 5.10015L6.79169 6.37515C7.05002 6.63349 7.50002 6.45015 7.50002 6.07515V2.50015C7.50002 2.26682 7.31669 2.08348 7.08335 2.08348H3.50835C3.13335 2.08348 2.95002 2.53348 3.21669 2.79182L4.33335 3.91682C2.70002 5.43348 1.66669 7.59182 1.66669 10.0002C1.66669 13.9585 4.43335 17.2752 8.13335 18.1252C8.65835 18.2418 9.16669 17.8502 9.16669 17.3085C9.16669 16.9168 8.89169 16.5835 8.50835 16.4918C5.55002 15.8168 3.33335 13.1668 3.33335 10.0002ZM18.3334 10.0002C18.3334 6.04182 15.5667 2.72515 11.8667 1.87515C11.3417 1.75848 10.8334 2.15015 10.8334 2.69182C10.8334 3.08348 11.1084 3.41682 11.4917 3.50848C14.45 4.18349 16.6667 6.83348 16.6667 10.0002C16.6667 11.9418 15.8167 13.6835 14.4834 14.9002L13.2084 13.6252C12.95 13.3668 12.5 13.5502 12.5 13.9252V17.5002C12.5 17.7335 12.6834 17.9168 12.9167 17.9168H16.4917C16.8667 17.9168 17.05 17.4668 16.7834 17.2085L15.6667 16.0835C17.3 14.5668 18.3334 12.4085 18.3334 10.0002Z" fill="#E0E0E0"/>
</svg>
