<svg xmlns="http://www.w3.org/2000/svg" width="52.673" height="39.505" viewBox="0 0 52.673 39.505"><defs><style>.a{opacity:0.5;}.b{fill:#fff;}</style></defs><g class="a" transform="translate(-6 -969.362)"><path class="b" d="M13.183,17C9.16,17,6,20.55,6,24.781V48.724C6,52.955,9.16,56.5,13.183,56.5H51.491c4.023,0,7.183-3.55,7.183-7.781V24.781c0-4.232-3.16-7.781-7.183-7.781Zm0,2.394h12.4a10.151,10.151,0,0,0-2.824,7.183v1.964a4.791,4.791,0,0,0-1.2-.168H8.394V24.781C8.394,21.718,10.573,19.394,13.183,19.394Zm17.957,0h2.394c3.256,0,5.986,2.946,5.986,7.183v3.348c-.106.11-.2.217-.3.337a7.363,7.363,0,0,0-1.5,4.695V37.95a7.309,7.309,0,0,0,1.5,4.676c.095.117.2.229.3.337v3.965c0,4.237-2.73,7.183-5.986,7.183H31.14c-3.256,0-5.986-2.946-5.986-7.183V42.963c.1-.108.2-.22.3-.337a7.309,7.309,0,0,0,1.5-4.676V34.957a7.363,7.363,0,0,0-1.5-4.695c-.1-.12-.193-.227-.3-.337V26.577C25.154,22.34,27.884,19.394,31.14,19.394Zm7.95,0h12.4c2.609,0,4.788,2.324,4.788,5.387v3.591H43.111a4.791,4.791,0,0,0-1.2.168V26.577A10.151,10.151,0,0,0,39.089,19.394ZM8.394,30.767H21.563a2.505,2.505,0,0,1,2.039.991,5.048,5.048,0,0,1,.954,3.2V37.95a4.989,4.989,0,0,1-.954,3.18,2.524,2.524,0,0,1-2.039,1.01H8.394Zm34.716,0H56.279V42.14H43.111a2.524,2.524,0,0,1-2.039-1.01,4.989,4.989,0,0,1-.954-3.18V34.957a5.048,5.048,0,0,1,.954-3.2A2.505,2.505,0,0,1,43.111,30.767ZM22.76,44.384v2.544a10.2,10.2,0,0,0,2.806,7.183H13.183c-2.609,0-4.788-2.323-4.788-5.387v-4.19H21.563A4.72,4.72,0,0,0,22.76,44.384Zm19.154,0a4.72,4.72,0,0,0,1.2.15H56.279v4.19c0,3.064-2.179,5.387-4.788,5.387H39.108a10.2,10.2,0,0,0,2.806-7.183Z" transform="translate(0 952.362)"/></g></svg>