<svg width="28" height="28" viewBox="0 0 28 28" fill="none" xmlns="http://www.w3.org/2000/svg">
<circle opacity="0.05" cx="14" cy="14" r="14" fill="#0C0C0D"/>
<path d="M15.5193 18.4592H15.4104C15.1909 18.4375 14.9841 18.3463 14.82 18.199C14.6559 18.0516 14.543 17.8558 14.4978 17.64L13.1082 11.2L11.6771 14.5185C11.6366 14.6112 11.5698 14.6901 11.4851 14.7454C11.4003 14.8007 11.3012 14.83 11.2 14.8296H9.64446C9.50694 14.8296 9.37506 14.775 9.27782 14.6777C9.18058 14.5805 9.12595 14.4486 9.12595 14.3111C9.12595 14.1736 9.18058 14.0417 9.27782 13.9444C9.37506 13.8472 9.50694 13.7926 9.64446 13.7926H10.8578L12.1593 10.7903C12.2469 10.5889 12.3962 10.4204 12.5857 10.3093C12.7752 10.1982 12.9951 10.1501 13.2137 10.172C13.4323 10.194 13.6383 10.2847 13.802 10.4313C13.9657 10.5778 14.0786 10.7725 14.1245 10.9874L15.5141 17.4222L16.9452 14.114C16.9841 14.0194 17.0502 13.9383 17.1351 13.8811C17.2199 13.8239 17.3199 13.7931 17.4222 13.7926H18.9778C19.1153 13.7926 19.2472 13.8472 19.3444 13.9444C19.4417 14.0417 19.4963 14.1736 19.4963 14.3111C19.4963 14.4486 19.4417 14.5805 19.3444 14.6777C19.2472 14.775 19.1153 14.8296 18.9778 14.8296H17.7645L16.463 17.8318C16.3835 18.0167 16.252 18.1744 16.0844 18.2858C15.9168 18.3972 15.7205 18.4575 15.5193 18.4592Z" fill="black"/>
</svg>
