<svg width="32" height="31" viewBox="0 0 32 31" fill="none" xmlns="http://www.w3.org/2000/svg">
<ellipse opacity="0.2" cx="16" cy="15.5" rx="16" ry="15.5" fill="#FFC83F"/>
<path d="M17.854 9.32461C17.6 9.07858 17.2444 8.95557 16.8889 8.95557H13.0794C11.7587 8.95557 10.6667 10.0135 10.6667 11.2929V20.396C10.6667 21.6754 11.7587 22.7333 13.0794 22.7333H19.1746C20.4952 22.7333 21.5873 21.6754 21.5873 20.396V13.3103C21.5873 12.9413 21.4349 12.5722 21.1556 12.3262L17.854 9.32461ZM20.2413 12.523H18.3111C17.9556 12.523 17.6762 12.2524 17.6762 11.9079V10.1857L20.2413 12.523ZM20.8254 20.396C20.8254 21.2818 20.0889 21.9952 19.1746 21.9952H13.0794C12.1651 21.9952 11.4286 21.2818 11.4286 20.396V11.2929C11.4286 10.4072 12.1651 9.69366 13.0794 9.69366H16.8889H16.9143V11.9079C16.9143 12.646 17.5492 13.2611 18.3111 13.2611H20.8254C20.8254 13.2857 20.8254 13.2857 20.8254 13.3103V20.396Z" fill="#FFC83F"/>
</svg>
