<svg width="28" height="28" viewBox="0 0 28 28" fill="none" xmlns="http://www.w3.org/2000/svg">
<circle opacity="0.05" cx="14" cy="14" r="14" fill="#006A38"/>
<path d="M16.4115 18.276H19.7107C19.6963 16.6843 19.5515 15.0781 18.0177 14.9768C17.3376 15.4977 16.7298 15.8161 16.1366 15.9318C16.0208 15.5701 15.8327 15.2373 15.5867 14.9623C16.1945 14.9913 16.7877 14.644 17.6704 13.9494C20.9841 13.9494 20.7381 16.829 20.7381 19.2889H16.4115C16.4115 18.9561 16.4115 18.8982 16.4115 18.8403C16.4115 18.6522 16.4115 18.4641 16.4115 18.276Z" fill="#006A38"/>
<path d="M15.6447 8.08887C17.3232 8.08887 18.6979 9.46354 18.6979 11.1421C18.6979 12.8206 17.3232 14.1953 15.6447 14.1953C15.0658 14.1953 14.516 14.0361 14.0674 13.7467C14.2555 13.4718 14.4002 13.1535 14.5015 12.8062C14.8343 13.0377 15.225 13.1679 15.6591 13.1679C16.7878 13.1679 17.6994 12.2563 17.6994 11.1276C17.6994 9.99894 16.7878 9.08731 15.6591 9.08731C14.9211 9.08731 14.27 9.47801 13.9082 10.0713C13.8359 9.98447 13.778 9.91212 13.6912 9.83977C13.5175 9.66612 13.3294 9.52142 13.1268 9.39119C13.6767 8.6098 14.6028 8.08887 15.6447 8.08887Z" fill="#006A38"/>
<path d="M7.90305 18.3772H15.1527C15.1382 16.9591 15.0079 15.5266 13.6333 15.4398C12.0705 16.6408 10.9707 16.6408 9.40796 15.4398C8.03329 15.5266 7.91752 16.9591 7.90305 18.3772ZM6.99143 19.2888C6.99143 17.1038 6.74543 14.5281 9.71184 14.5281C11.2457 15.7436 11.7956 15.7436 13.3294 14.5281C16.2958 14.5281 16.0643 17.0894 16.0643 19.2888C13.04 19.2888 10.0157 19.2888 6.99143 19.2888Z" fill="#006A38"/>
<path d="M11.5206 9.30438C13.0255 9.30438 14.241 10.5199 14.241 12.0248C14.241 13.5297 13.0255 14.7452 11.5206 14.7452C10.0157 14.7452 8.8002 13.5297 8.8002 12.0248C8.8002 10.5344 10.0157 9.30438 11.5206 9.30438ZM11.5206 10.216C10.5222 10.216 9.71183 11.0263 9.71183 12.0248C9.71183 13.0232 10.5222 13.8336 11.5206 13.8336C12.5191 13.8336 13.3294 13.0232 13.3294 12.0248C13.3294 11.0263 12.5191 10.216 11.5206 10.216Z" fill="#006A38"/>
</svg>
