<svg xmlns="http://www.w3.org/2000/svg" width="36" height="36" viewBox="0 0 36 36"><defs><style>.a{fill:rgba(216,17,48,0.05);stroke:rgba(216,17,48,0.2);}.b{fill:#d81130;opacity:0.6;}.c{stroke:none;}.d{fill:none;}</style></defs><g class="a" transform="translate(0 18) rotate(-45)"><rect class="c" width="25.456" height="25.456" rx="12.728"/><rect class="d" x="0.5" y="0.5" width="24.456" height="24.456" rx="12.228"/></g><path class="b" d="M4.975,3.27a2,2,0,0,1,3.522,0l.312.58a2,2,0,0,0,.813.813l.58.312a2,2,0,0,1,0,3.522l-.58.312a2,2,0,0,0-.813.813L8.5,10.2a2,2,0,0,1-3.522,0l-.312-.58a2,2,0,0,0-.813-.813L3.27,8.5a2,2,0,0,1,0-3.522l.58-.312a2,2,0,0,0,.813-.813Z" transform="translate(11.321 11.264)"/></svg>