<svg width="12" height="13" viewBox="0 0 12 13" fill="none" xmlns="http://www.w3.org/2000/svg">
<g clip-path="url(#clip0)">
<path d="M5.5 2.50012H2C1.73478 2.50012 1.48043 2.60548 1.29289 2.79302C1.10536 2.98055 1 3.23491 1 3.50012V10.5001C1 10.7653 1.10536 11.0197 1.29289 11.2072C1.48043 11.3948 1.73478 11.5001 2 11.5001H9C9.26522 11.5001 9.51957 11.3948 9.70711 11.2072C9.89464 11.0197 10 10.7653 10 10.5001V7.00012" stroke="#001409" stroke-linecap="round" stroke-linejoin="round"/>
<path d="M9.25 1.74999C9.44891 1.55108 9.7187 1.43933 10 1.43933C10.2813 1.43933 10.5511 1.55108 10.75 1.74999C10.9489 1.9489 11.0607 2.21869 11.0607 2.49999C11.0607 2.7813 10.9489 3.05108 10.75 3.24999L6 7.99999L4 8.49999L4.5 6.49999L9.25 1.74999Z" stroke="#001409" stroke-linecap="round" stroke-linejoin="round"/>
</g>
<defs>
<clipPath id="clip0">
<rect width="12" height="12" fill="white" transform="translate(0 0.5)"/>
</clipPath>
</defs>
</svg>
