<svg width="40" height="40" viewBox="0 0 40 40" fill="none" xmlns="http://www.w3.org/2000/svg">
<g filter="url(#filter0_d)">
<path d="M30 0H10C4.47715 0 0 4.47715 0 10V30C0 35.5228 4.47715 40 10 40H30C35.5228 40 40 35.5228 40 30V10C40 4.47715 35.5228 0 30 0Z" fill="white"/>
</g>
<path d="M21.9756 19.9967L15.3926 13.4187C15.2768 13.3037 15.185 13.1669 15.1223 13.0162C15.0596 12.8655 15.0273 12.7039 15.0273 12.5407C15.0273 12.3775 15.0596 12.2159 15.1223 12.0653C15.185 11.9146 15.2768 11.7778 15.3926 11.6627C15.6272 11.4313 15.9435 11.3016 16.2731 11.3016C16.6026 11.3016 16.9189 11.4313 17.1536 11.6627L24.6116 19.1157C24.8369 19.3419 24.9664 19.6463 24.9731 19.9655C24.9798 20.2847 24.8632 20.5943 24.6476 20.8297L17.1586 28.3357C16.9257 28.5692 16.6096 28.7007 16.2798 28.7012C15.95 28.7016 15.6336 28.5711 15.4001 28.3382C15.1665 28.1054 15.0351 27.7893 15.0346 27.4595C15.0341 27.1297 15.1647 26.8132 15.3976 26.5797L21.9756 19.9967Z" fill="black"/>
<defs>
<filter id="filter0_d" x="0" y="0" width="40" height="40" filterUnits="userSpaceOnUse" color-interpolation-filters="sRGB">
<feFlood flood-opacity="0" result="BackgroundImageFix"/>
<feColorMatrix in="SourceAlpha" type="matrix" values="0 0 0 0 0 0 0 0 0 0 0 0 0 0 0 0 0 0 127 0"/>
<feOffset/>
<feColorMatrix type="matrix" values="0 0 0 0 0.0352941 0 0 0 0 0.0509804 0 0 0 0 0.486275 0 0 0 0.102 0"/>
<feBlend mode="normal" in2="BackgroundImageFix" result="effect1_dropShadow"/>
<feBlend mode="normal" in="SourceGraphic" in2="effect1_dropShadow" result="shape"/>
</filter>
</defs>
</svg>
