<svg width="45" height="45" viewBox="0 0 45 45" fill="none" xmlns="http://www.w3.org/2000/svg">
<circle opacity="0.05" cx="22.5" cy="22.5" r="22.5" fill="#241C15"/>
<path d="M27.8334 16.1667L16.1667 27.8333" stroke="#8C8C8C" stroke-width="2" stroke-linecap="round" stroke-linejoin="round"/>
<path d="M17.4166 19.5C18.5672 19.5 19.5 18.5673 19.5 17.4167C19.5 16.2661 18.5672 15.3333 17.4166 15.3333C16.2661 15.3333 15.3333 16.2661 15.3333 17.4167C15.3333 18.5673 16.2661 19.5 17.4166 19.5Z" stroke="#8C8C8C" stroke-width="2" stroke-linecap="round" stroke-linejoin="round"/>
<path d="M26.5833 28.6667C27.7339 28.6667 28.6667 27.7339 28.6667 26.5833C28.6667 25.4327 27.7339 24.5 26.5833 24.5C25.4327 24.5 24.5 25.4327 24.5 26.5833C24.5 27.7339 25.4327 28.6667 26.5833 28.6667Z" stroke="#8C8C8C" stroke-width="2" stroke-linecap="round" stroke-linejoin="round"/>
</svg>
