<svg width="45" height="45" viewBox="0 0 45 45" fill="none" xmlns="http://www.w3.org/2000/svg">
<circle opacity="0.05" cx="22.5" cy="22.5" r="22.5" fill="#006A38"/>
<path d="M26.8305 30.1912H32.7219C32.6961 27.3489 32.4377 24.4807 29.6987 24.2998C28.4842 25.23 27.3989 25.7985 26.3395 26.0052C26.1328 25.3592 25.7969 24.7649 25.3576 24.2739C26.4429 24.3256 27.5023 23.7055 29.0785 22.4651C34.9958 22.4651 34.5566 27.6073 34.5566 32H26.8305C26.8305 31.4057 26.8305 31.3024 26.8305 31.199C26.8305 30.8631 26.8305 30.5272 26.8305 30.1912Z" fill="#006A38"/>
<path d="M25.4612 12C28.4586 12 30.9133 14.4548 30.9133 17.4522C30.9133 20.4496 28.4586 22.9044 25.4612 22.9044C24.4276 22.9044 23.4456 22.6202 22.6446 22.1034C22.9805 21.6124 23.2389 21.0439 23.4198 20.4238C24.0141 20.8372 24.7118 21.0698 25.487 21.0698C27.5025 21.0698 29.1304 19.4419 29.1304 17.4264C29.1304 15.4109 27.5025 13.7829 25.487 13.7829C24.1692 13.7829 23.0064 14.4806 22.3604 15.5401C22.2312 15.385 22.1278 15.2558 21.9728 15.1266C21.6627 14.8165 21.3268 14.5581 20.965 14.3256C21.9469 12.9302 23.6007 12 25.4612 12Z" fill="#006A38"/>
<path d="M11.6368 30.3721H24.5825C24.5567 27.8398 24.3241 25.2817 21.8694 25.1266C19.0787 27.2713 17.1148 27.2713 14.3241 25.1266C11.8694 25.2817 11.6626 27.8398 11.6368 30.3721ZM10.0089 32C10.0089 28.0982 9.56961 23.4987 14.8668 23.4987C17.6058 25.6693 18.5877 25.6693 21.3267 23.4987C26.6239 23.4987 26.2104 28.0724 26.2104 32C20.8099 32 15.4094 32 10.0089 32Z" fill="#006A38"/>
<path d="M18.0967 14.1706C20.7841 14.1706 22.9546 16.3411 22.9546 19.0284C22.9546 21.7158 20.7841 23.8863 18.0967 23.8863C15.4094 23.8863 13.2389 21.7158 13.2389 19.0284C13.2389 16.3669 15.4094 14.1706 18.0967 14.1706ZM18.0967 15.7985C16.3138 15.7985 14.8668 17.2455 14.8668 19.0284C14.8668 20.8114 16.3138 22.2584 18.0967 22.2584C19.8797 22.2584 21.3267 20.8114 21.3267 19.0284C21.3267 17.2455 19.8797 15.7985 18.0967 15.7985Z" fill="#006A38"/>
</svg>
