<svg width="45" height="45" viewBox="0 0 45 45" fill="none" xmlns="http://www.w3.org/2000/svg">
<circle opacity="0.05" cx="22.5" cy="22.5" r="22.5" fill="#16C98D"/>
<g clip-path="url(#clip0)">
<path d="M21.8125 26.2216V26.9373L22.5274 26.9708C25.9471 27.1308 27.4334 29.4037 27.4334 30.6091V31.25H13.75V30.6091C13.75 29.4037 15.2366 27.1308 18.6566 26.9708L19.3716 26.9373V26.2216V25.041V24.6038L18.9912 24.3884C18.478 24.0977 18.0538 23.6737 17.7637 23.161L17.7636 23.1609C16.8795 21.5988 17.429 19.6155 18.991 18.7315C20.5531 17.8473 22.5364 18.3969 23.4204 19.9588C24.3046 21.5209 23.755 23.5042 22.1931 24.3883L21.8125 24.6037V25.041V26.2216Z" stroke="#16C98D" stroke-width="1.5"/>
<path d="M32.5 17.4278C32.5 20.1494 30.2937 22.3556 27.5722 22.3556C24.8506 22.3556 22.6444 20.1494 22.6444 17.4278C22.6444 14.7063 24.8506 12.5 27.5722 12.5C30.2937 12.5 32.5 14.7063 32.5 17.4278Z" stroke="#16C98D"/>
<mask id="path-4-inside-1" fill="white">
<path d="M27.5722 13.5322L24.7641 15.5406V16.4109L27.5722 14.4025L30.3803 16.4109V15.5406L27.5722 13.5322Z"/>
</mask>
<path d="M27.5722 13.5322L28.1539 12.7188L27.5722 12.3027L26.9904 12.7188L27.5722 13.5322ZM24.7641 15.5406L24.1823 14.7272L23.7641 15.0264V15.5406H24.7641ZM24.7641 16.4109H23.7641V18.3556L25.3458 17.2243L24.7641 16.4109ZM27.5722 14.4025L28.1539 13.5891L27.5722 13.173L26.9904 13.5891L27.5722 14.4025ZM30.3803 16.4109L29.7986 17.2243L31.3803 18.3556V16.4109H30.3803ZM30.3803 15.5406H31.3803V15.0264L30.9621 14.7272L30.3803 15.5406ZM26.9904 12.7188L24.1823 14.7272L25.3458 16.354L28.1539 14.3456L26.9904 12.7188ZM23.7641 15.5406V16.4109H25.7641V15.5406H23.7641ZM25.3458 17.2243L28.1539 15.2159L26.9904 13.5891L24.1823 15.5976L25.3458 17.2243ZM26.9904 15.2159L29.7986 17.2243L30.9621 15.5976L28.1539 13.5891L26.9904 15.2159ZM31.3803 16.4109V15.5406H29.3803V16.4109H31.3803ZM30.9621 14.7272L28.1539 12.7188L26.9904 14.3456L29.7986 16.354L30.9621 14.7272Z" fill="#16C98D" mask="url(#path-4-inside-1)"/>
<path d="M25.7341 19.7206V16.9114L27.5722 15.5877L29.4103 16.9114V19.7206H25.7341Z" stroke="#16C98D"/>
</g>
<defs>
<clipPath id="clip0">
<rect width="20" height="20" fill="white" transform="translate(13 12)"/>
</clipPath>
</defs>
</svg>
