<svg width="45" height="45" viewBox="0 0 45 45" fill="none" xmlns="http://www.w3.org/2000/svg">
<circle opacity="0.05" cx="22.5" cy="22.5" r="22.5" fill="#FFC83F"/>
<path d="M14.6667 19.5C14.2083 19.5 13.8333 19.875 13.8333 20.3333V28.6667C13.8333 29.5833 14.5833 30.3333 15.5 30.3333H28C28.4583 30.3333 28.8333 29.9583 28.8333 29.5C28.8333 29.0417 28.4583 28.6667 28 28.6667H15.5V20.3333C15.5 19.875 15.125 19.5 14.6667 19.5Z" fill="#FFC83F"/>
<path d="M28 16.1667V14.5C28 13.575 27.2584 12.8333 26.3334 12.8333H23C22.075 12.8333 21.3334 13.575 21.3334 14.5V16.1667H17.1667V25.3333C17.1667 26.2583 17.9084 27 18.8334 27H30.5C31.425 27 32.1667 26.2583 32.1667 25.3333V16.1667H28ZM23 14.5H26.3334V16.1667H23V14.5ZM23 23.7417V19.425C23 19.1 23.3667 18.9 23.6417 19.075L27.0334 21.2333C27.2917 21.4 27.2917 21.775 27.0334 21.9333L23.6417 24.0917C23.3667 24.2667 23 24.0667 23 23.7417Z" fill="#FFC83F"/>
</svg>
