<svg width="45" height="45" viewBox="0 0 45 45" fill="none" xmlns="http://www.w3.org/2000/svg">
<circle opacity="0.05" cx="22.5" cy="22.5" r="22.5" fill="#0C0C0D"/>
<path d="M24.9417 29.6669H24.7667C24.414 29.6319 24.0816 29.4853 23.8178 29.2486C23.5541 29.0118 23.3727 28.6971 23.3 28.3502L21.0667 18.0002L18.7667 23.3335C18.7016 23.4826 18.5943 23.6094 18.4581 23.6982C18.3219 23.787 18.1626 23.8341 18 23.8335H15.5C15.279 23.8335 15.067 23.7457 14.9107 23.5894C14.7545 23.4332 14.6667 23.2212 14.6667 23.0002C14.6667 22.7792 14.7545 22.5672 14.9107 22.4109C15.067 22.2547 15.279 22.1669 15.5 22.1669H17.45L19.5417 17.3419C19.6825 17.0181 19.9224 16.7474 20.227 16.5688C20.5316 16.3902 20.885 16.3129 21.2363 16.3482C21.5876 16.3834 21.9187 16.5293 22.1817 16.7648C22.4448 17.0003 22.6263 17.3132 22.7 17.6585L24.9333 28.0002L27.2333 22.6835C27.2958 22.5313 27.402 22.4011 27.5384 22.3091C27.6749 22.2172 27.8355 22.1677 28 22.1669H30.5C30.721 22.1669 30.933 22.2547 31.0892 22.4109C31.2455 22.5672 31.3333 22.7792 31.3333 23.0002C31.3333 23.2212 31.2455 23.4332 31.0892 23.5894C30.933 23.7457 30.721 23.8335 30.5 23.8335H28.55L26.4583 28.6585C26.3306 28.9556 26.1192 29.2091 25.8499 29.3882C25.5806 29.5672 25.265 29.664 24.9417 29.6669Z" fill="black"/>
</svg>
