<svg xmlns="http://www.w3.org/2000/svg" width="21.268" height="21.607" viewBox="0 0 21.268 21.607"><defs><style>.a{opacity:0.6;}.b{fill:#020424;}</style></defs><g class="a" transform="translate(-4.813 -4.097)"><path class="b" d="M12.3,13H2.912a.427.427,0,0,0-.327.653l9.388,13.061a.4.4,0,0,0,.735-.245V13.408A.386.386,0,0,0,12.3,13Z" transform="translate(2.292 -1.184)"/><path class="b" d="M26.8,13H17.408a.386.386,0,0,0-.408.408V26.47a.4.4,0,0,0,.735.245l9.388-13.061C27.367,13.408,27.123,13,26.8,13Z" transform="translate(-1.141 -1.184)"/><path class="b" d="M18.893,9.372h7.946a.416.416,0,0,0,.318-.636L23.184,3.254a.372.372,0,0,0-.636,0L18.575,8.737C18.337,8.975,18.575,9.372,18.893,9.372Z" transform="translate(-1.138 1.628)"/><path class="b" d="M19.884,2H10.949a.468.468,0,0,0-.357.715L15.059,8.7a.418.418,0,0,0,.715,0l4.467-5.986A.468.468,0,0,0,19.884,2Z" transform="translate(-0.416 2.097)"/><path class="b" d="M2.9,9.384h7.908a.414.414,0,0,0,.316-.633L7.17,3.453a.37.37,0,0,0-.633,0l-3.954,5.3A.414.414,0,0,0,2.9,9.384Z" transform="translate(2.292 1.616)"/></g></svg>