<svg width="20" height="20" viewBox="0 0 20 20" fill="none" xmlns="http://www.w3.org/2000/svg">
<path d="M15 2.50016H12.35C12 1.5335 11.0833 0.833496 9.99998 0.833496C8.91665 0.833496 7.99998 1.5335 7.64998 2.50016H4.99998C4.08331 2.50016 3.33331 3.25016 3.33331 4.16683V16.6668C3.33331 17.5835 4.08331 18.3335 4.99998 18.3335H10.0916C9.59998 17.8585 9.19998 17.2918 8.90831 16.6668H4.99998V4.16683H6.66665V5.00016C6.66665 5.91683 7.41665 6.66683 8.33331 6.66683H11.6666C12.5833 6.66683 13.3333 5.91683 13.3333 5.00016V4.16683H15V8.40016C15.5916 8.4835 16.15 8.6585 16.6666 8.90016V4.16683C16.6666 3.25016 15.9166 2.50016 15 2.50016ZM9.99998 4.16683C9.54165 4.16683 9.16665 3.79183 9.16665 3.3335C9.16665 2.87516 9.54165 2.50016 9.99998 2.50016C10.4583 2.50016 10.8333 2.87516 10.8333 3.3335C10.8333 3.79183 10.4583 4.16683 9.99998 4.16683ZM14.1666 10.0002C11.8666 10.0002 9.99998 11.8668 9.99998 14.1668C9.99998 16.4668 11.8666 18.3335 14.1666 18.3335C16.4666 18.3335 18.3333 16.4668 18.3333 14.1668C18.3333 11.8668 16.4666 10.0002 14.1666 10.0002ZM15.2416 15.8335L13.8666 14.4585C13.7916 14.3835 13.7416 14.2752 13.7416 14.1668V12.0918C13.7416 11.8585 13.925 11.6752 14.1583 11.6752C14.3916 11.6752 14.575 11.8585 14.575 12.0918V14.0002L15.825 15.2502C15.9916 15.4168 15.9916 15.6752 15.825 15.8418C15.6666 16.0002 15.4083 16.0002 15.2416 15.8335Z" fill="#E0E0E0"/>
</svg>
