<svg width="45" height="45" viewBox="0 0 45 45" fill="none" xmlns="http://www.w3.org/2000/svg">
<circle opacity="0.05" cx="22.5" cy="22.5" r="22.5" fill="#FFC83F"/>
<path d="M25.281 13.356C24.8709 12.9477 24.3055 12.75 23.75 12.75H18.3929C16.3976 12.75 14.75 14.3976 14.75 16.3929V29.6071C14.75 31.6024 16.3976 33.25 18.3929 33.25H26.9643C28.9595 33.25 30.6071 31.6024 30.6071 29.6071V19.3214C30.6071 18.7236 30.3691 18.1186 29.9197 17.7093L25.281 13.356ZM25.1071 15.3641L27.8336 17.9286H25.75C25.3881 17.9286 25.1071 17.6476 25.1071 17.2857V15.3641ZM29.0357 29.6071C29.0357 30.7548 28.1119 31.6786 26.9643 31.6786H18.3929C17.2452 31.6786 16.3214 30.7548 16.3214 29.6071V16.3929C16.3214 15.2452 17.2452 14.3214 18.3929 14.3214H23.5357V17.2857C23.5357 18.4952 24.5405 19.5 25.75 19.5H29.0357V29.6071Z" fill="#FFC83F" stroke="#F27236" stroke-width="0.5"/>
</svg>
