<svg width="45" height="45" viewBox="0 0 45 45" fill="none" xmlns="http://www.w3.org/2000/svg">
<circle opacity="0.05" cx="22.5" cy="22.5" r="22.5" fill="#006A38"/>
<path d="M27.8333 16.167L16.1667 27.8337" stroke="#006A38" stroke-width="2" stroke-linecap="round" stroke-linejoin="round"/>
<path d="M17.4167 19.4997C18.5673 19.4997 19.5 18.5669 19.5 17.4163C19.5 16.2657 18.5673 15.333 17.4167 15.333C16.2661 15.333 15.3333 16.2657 15.3333 17.4163C15.3333 18.5669 16.2661 19.4997 17.4167 19.4997Z" stroke="#006A38" stroke-width="2" stroke-linecap="round" stroke-linejoin="round"/>
<path d="M26.5833 28.6667C27.7339 28.6667 28.6667 27.7339 28.6667 26.5833C28.6667 25.4327 27.7339 24.5 26.5833 24.5C25.4327 24.5 24.5 25.4327 24.5 26.5833C24.5 27.7339 25.4327 28.6667 26.5833 28.6667Z" stroke="#006A38" stroke-width="2" stroke-linecap="round" stroke-linejoin="round"/>
</svg>
