<svg width="12" height="12" viewBox="0 0 12 12" fill="none" xmlns="http://www.w3.org/2000/svg">
<path d="M11.0001 8.4598V9.9598C11.0007 10.0991 10.9721 10.2369 10.9163 10.3645C10.8606 10.4921 10.7787 10.6066 10.6761 10.7007C10.5735 10.7949 10.4524 10.8665 10.3205 10.9112C10.1885 10.9558 10.0488 10.9723 9.91009 10.9598C8.3715 10.7926 6.89359 10.2669 5.59509 9.4248C4.387 8.65714 3.36276 7.63289 2.59509 6.4248C1.75008 5.12041 1.22421 3.6353 1.06009 2.0898C1.04759 1.95154 1.06403 1.81218 1.10834 1.68062C1.15265 1.54905 1.22387 1.42815 1.31747 1.32561C1.41107 1.22308 1.52499 1.14116 1.65198 1.08507C1.77898 1.02897 1.91626 0.999935 2.05509 0.999804H3.55509C3.79774 0.997416 4.03298 1.08334 4.21697 1.24157C4.40095 1.3998 4.52113 1.61953 4.55509 1.8598C4.6184 2.33984 4.73581 2.81117 4.90509 3.2648C4.97236 3.44377 4.98692 3.63826 4.94704 3.82524C4.90716 4.01223 4.81452 4.18386 4.68009 4.3198L4.04509 4.9548C4.75687 6.20658 5.79332 7.24303 7.04509 7.9548L7.68009 7.3198C7.81603 7.18537 7.98766 7.09273 8.17465 7.05285C8.36163 7.01297 8.55613 7.02753 8.73509 7.0948C9.18872 7.26408 9.66005 7.38149 10.1401 7.4448C10.383 7.47907 10.6048 7.60141 10.7634 7.78855C10.9219 7.9757 11.0062 8.21459 11.0001 8.4598Z" stroke="#241C15" stroke-linecap="round" stroke-linejoin="round"/>
</svg>
