<svg width="20" height="20" viewBox="0 0 20 20" fill="none" xmlns="http://www.w3.org/2000/svg">
<g clip-path="url(#clip0)">
<path d="M0.000119756 8.69475C-0.00858047 9.45082 0.457484 10.1313 1.16559 10.3964V7.15633C1.16559 7.1097 1.18888 7.03979 1.18888 6.99316C0.476 7.25613 0.0018598 7.93484 0.000119756 8.69475Z" fill="white"/>
<path d="M6.36373 12.7041H3.31012L4.45231 16.8533C4.62145 17.4865 5.19548 17.9266 5.8509 17.9255C6.31724 17.9311 6.75845 17.7148 7.03971 17.3428C7.3237 16.9889 7.41128 16.5162 7.27279 16.0841L6.36373 12.7041Z" fill="white"/>
<path d="M1.1889 6.96958H1.21219V6.94629C1.21219 6.96958 1.21219 6.96958 1.1889 6.96958Z" fill="#E0E0E0"/>
<path d="M17.9021 6.64355H17.7156V10.8393H17.9021C19.0608 10.8393 20 9.90007 20 8.74147C20 7.58282 19.0607 6.64355 17.9021 6.64355Z" fill="white"/>
<path d="M1.86493 7.15616V10.4662C1.89014 11.3233 2.59249 12.005 3.44998 12.0046H7.69239V5.71094H3.44998C2.61083 5.71094 1.86493 6.31701 1.86493 7.15616Z" fill="white"/>
<path d="M8.39166 12.098L17.0163 15.5479V2.07471L8.39166 5.5246V12.098Z" fill="white"/>
</g>
<defs>
<clipPath id="clip0">
<rect width="20" height="20" fill="white"/>
</clipPath>
</defs>
</svg>
