<svg width="20" height="20" viewBox="0 0 20 20" fill="none" xmlns="http://www.w3.org/2000/svg">
<g clip-path="url(#clip0)">
<path d="M9.5625 14.2215V13.0409C11.485 11.9528 12.1612 9.51184 11.0731 7.58934C9.985 5.66684 7.54406 4.99059 5.62156 6.07871C3.69906 7.16684 3.02281 9.60777 4.11094 11.5303C4.46812 12.1615 4.99031 12.6834 5.62156 13.0409V14.2215C1.895 14.3959 0 16.9156 0 18.609V20H15.1834V18.609C15.1834 16.9156 13.2887 14.3959 9.5625 14.2215Z" fill="#E0E0E0"/>
<path d="M14.5722 10.8556C17.5698 10.8556 20 8.42551 20 5.42781C20 2.43011 17.5698 0 14.5722 0C11.5745 0 9.14435 2.43011 9.14435 5.42781C9.14435 8.42551 11.5745 10.8556 14.5722 10.8556Z" fill="#E0E0E0"/>
<path d="M14.5722 1.53223L11.764 3.54066V4.41098L14.5722 2.40254L17.3803 4.41098V3.54066L14.5722 1.53223Z" fill="#001409"/>
<path d="M12.2341 8.22074V4.65543L14.5722 2.97168L16.9103 4.65543V8.22074H12.2341Z" fill="#001409"/>
</g>
<defs>
<clipPath id="clip0">
<rect width="20" height="20" fill="white"/>
</clipPath>
</defs>
</svg>
