<svg width="20" height="20" viewBox="0 0 20 20" fill="none" xmlns="http://www.w3.org/2000/svg">
<path d="M1.66665 7.5C1.20831 7.5 0.833313 7.875 0.833313 8.33333V16.6667C0.833313 17.5833 1.58331 18.3333 2.49998 18.3333H15C15.4583 18.3333 15.8333 17.9583 15.8333 17.5C15.8333 17.0417 15.4583 16.6667 15 16.6667H2.49998V8.33333C2.49998 7.875 2.12498 7.5 1.66665 7.5Z" fill="#E0E0E0"/>
<path d="M15 4.16683V2.50016C15 1.57516 14.2583 0.833496 13.3333 0.833496H9.99996C9.07496 0.833496 8.33329 1.57516 8.33329 2.50016V4.16683H4.16663V13.3335C4.16663 14.2585 4.90829 15.0002 5.83329 15.0002H17.5C18.425 15.0002 19.1666 14.2585 19.1666 13.3335V4.16683H15ZM9.99996 2.50016H13.3333V4.16683H9.99996V2.50016ZM9.99996 11.7418V7.42516C9.99996 7.10016 10.3666 6.90016 10.6416 7.07516L14.0333 9.2335C14.2916 9.40016 14.2916 9.77516 14.0333 9.9335L10.6416 12.0918C10.3666 12.2668 9.99996 12.0668 9.99996 11.7418Z" fill="#E0E0E0"/>
</svg>
