<svg width="20" height="20" viewBox="0 0 20 20" fill="none" xmlns="http://www.w3.org/2000/svg">
<path d="M16.25 9.99984C16.25 9.80817 16.2417 9.62484 16.225 9.43317L17.775 8.25817C18.1084 8.00817 18.2 7.5415 17.9917 7.17484L16.4334 4.48317C16.225 4.1165 15.775 3.9665 15.3917 4.13317L13.6 4.8915C13.2917 4.67484 12.9667 4.48317 12.625 4.32484L12.3834 2.39984C12.3334 1.98317 11.975 1.6665 11.5584 1.6665H8.45003C8.02503 1.6665 7.66669 1.98317 7.61669 2.39984L7.37503 4.32484C7.03336 4.48317 6.70836 4.67484 6.40003 4.8915L4.60836 4.13317C4.22503 3.9665 3.77503 4.1165 3.56669 4.48317L2.00836 7.18317C1.80003 7.54984 1.89169 8.00817 2.22503 8.2665L3.77503 9.4415C3.75836 9.62484 3.75003 9.80817 3.75003 9.99984C3.75003 10.1915 3.75836 10.3748 3.77503 10.5665L2.22503 11.7415C1.89169 11.9915 1.80003 12.4582 2.00836 12.8248L3.56669 15.5165C3.77503 15.8832 4.22503 16.0332 4.60836 15.8665L6.40003 15.1082C6.70836 15.3248 7.03336 15.5165 7.37503 15.6748L7.61669 17.5998C7.66669 18.0165 8.02503 18.3332 8.44169 18.3332H11.55C11.9667 18.3332 12.325 18.0165 12.375 17.5998L12.6167 15.6748C12.9584 15.5165 13.2834 15.3248 13.5917 15.1082L15.3834 15.8665C15.7667 16.0332 16.2167 15.8832 16.425 15.5165L17.9834 12.8248C18.1917 12.4582 18.1 11.9998 17.7667 11.7415L16.2167 10.5665C16.2417 10.3748 16.25 10.1915 16.25 9.99984ZM10.0334 12.9165C8.42503 12.9165 7.11669 11.6082 7.11669 9.99984C7.11669 8.3915 8.42503 7.08317 10.0334 7.08317C11.6417 7.08317 12.95 8.3915 12.95 9.99984C12.95 11.6082 11.6417 12.9165 10.0334 12.9165Z" fill="#E0E0E0"/>
</svg>
