<svg width="45" height="45" viewBox="0 0 45 45" fill="none" xmlns="http://www.w3.org/2000/svg">
<circle opacity="0.05" cx="22.5" cy="22.5" r="22.5" fill="#006A38"/>
<path d="M14.6667 19.5C14.2083 19.5 13.8333 19.875 13.8333 20.3333V28.6667C13.8333 29.5833 14.5833 30.3333 15.5 30.3333H28C28.4583 30.3333 28.8333 29.9583 28.8333 29.5C28.8333 29.0417 28.4583 28.6667 28 28.6667H15.5V20.3333C15.5 19.875 15.125 19.5 14.6667 19.5Z" fill="#006A38"/>
<path d="M28 16.1668V14.5002C28 13.5752 27.2584 12.8335 26.3334 12.8335H23C22.075 12.8335 21.3334 13.5752 21.3334 14.5002V16.1668H17.1667V25.3335C17.1667 26.2585 17.9084 27.0002 18.8334 27.0002H30.5C31.425 27.0002 32.1667 26.2585 32.1667 25.3335V16.1668H28ZM23 14.5002H26.3334V16.1668H23V14.5002ZM23 23.7418V19.4252C23 19.1002 23.3667 18.9002 23.6417 19.0752L27.0334 21.2335C27.2917 21.4002 27.2917 21.7752 27.0334 21.9335L23.6417 24.0918C23.3667 24.2668 23 24.0668 23 23.7418Z" fill="#006A38"/>
</svg>
