<svg xmlns="http://www.w3.org/2000/svg" width="18.666" height="19.849" viewBox="0 0 18.666 19.849"><defs><style>.a{fill:#001409;stroke:#001409;stroke-width:0.3px;opacity:0.6;}</style></defs><path class="a" d="M18.021,12.769l-5.19-2.995,5.19-2.995a.611.611,0,0,0,.224-.835L17.022,3.829a.612.612,0,0,0-.835-.224L11,6.6V.611A.611.611,0,0,0,10.386,0H7.941A.611.611,0,0,0,7.33.611V6.6L2.14,3.605a.612.612,0,0,0-.835.224L.082,5.945a.611.611,0,0,0,.224.835L5.5,9.774.306,12.769a.611.611,0,0,0-.224.835L1.3,15.72a.612.612,0,0,0,.835.224l5.19-2.995v5.989a.611.611,0,0,0,.611.611h2.445A.611.611,0,0,0,11,18.938V12.949l5.19,2.995a.611.611,0,0,0,.835-.224L18.245,13.6A.61.61,0,0,0,18.021,12.769Z" transform="translate(0.152 0.15)"/></svg>