<svg width="45" height="45" viewBox="0 0 45 45" fill="none" xmlns="http://www.w3.org/2000/svg">
<circle opacity="0.05" cx="22.5" cy="22.5" r="22.5" fill="#006A38"/>
<g clip-path="url(#clip0)">
<path d="M13.0002 21.6948C12.9915 22.4508 13.4575 23.1313 14.1656 23.3964V20.1563C14.1656 20.1097 14.1889 20.0398 14.1889 19.9932C13.476 20.2561 13.0019 20.9348 13.0002 21.6948Z" fill="#006A38"/>
<path d="M19.3637 25.7041H16.3101L17.4523 29.8533C17.6214 30.4865 18.1955 30.9266 18.8509 30.9255C19.3172 30.9311 19.7585 30.7148 20.0397 30.3428C20.3237 29.9889 20.4113 29.5162 20.2728 29.0841L19.3637 25.7041Z" fill="#006A38"/>
<path d="M14.189 19.9696H14.2123V19.9463C14.2123 19.9696 14.2123 19.9696 14.189 19.9696Z" fill="#E0E0E0"/>
<path d="M30.9022 19.6436H30.7157V23.8393H30.9022C32.0608 23.8393 33 22.9001 33 21.7415C33 20.5828 32.0608 19.6436 30.9022 19.6436Z" fill="#006A38"/>
<path d="M14.8649 20.1562V23.4662C14.8901 24.3233 15.5925 25.005 16.45 25.0046H20.6924V18.7109H16.45C15.6108 18.7109 14.8649 19.317 14.8649 20.1562Z" fill="#006A38"/>
<path d="M21.3917 25.098L30.0163 28.5479V15.0747L21.3917 18.5246V25.098Z" fill="#006A38"/>
</g>
<defs>
<clipPath id="clip0">
<rect width="20" height="20" fill="white" transform="translate(13 13)"/>
</clipPath>
</defs>
</svg>
