<svg xmlns="http://www.w3.org/2000/svg" width="22" height="19.25" viewBox="0 0 22 19.25"><defs><style>.a{fill:#192b21;opacity:0.6;}</style></defs><path class="a" d="M19.817,6.375H3.438A.688.688,0,0,1,3.438,5h16.5a.687.687,0,0,0,.688-.687A2.062,2.062,0,0,0,18.563,2.25H2.75A2.75,2.75,0,0,0,0,5V18.75A2.75,2.75,0,0,0,2.75,21.5H19.817A2.127,2.127,0,0,0,22,19.438v-11A2.127,2.127,0,0,0,19.817,6.375Zm-1.942,8.937a1.375,1.375,0,1,1,1.375-1.375A1.375,1.375,0,0,1,17.875,15.312Z" transform="translate(0 -2.25)"/></svg>