<svg xmlns="http://www.w3.org/2000/svg" xmlns:xlink="http://www.w3.org/1999/xlink" width="533" height="300" viewBox="0 0 533 300"><defs><style>.a{fill:#090d7c;}.b{clip-path:url(#a);}.c{fill:#797fde;}.d{fill:#8bc9fe;}</style><clipPath id="a"><path class="a" d="M20,0H513a20,20,0,0,1,20,20V280a20,20,0,0,1-20,20H20A20,20,0,0,1,0,280V20A20,20,0,0,1,20,0Z" transform="translate(1157 181)"/></clipPath></defs><g class="b" transform="translate(-1157 -181)"><path class="c" d="M252.839,0C392.478,0,505.677,113.2,505.677,252.839s-113.2,252.839-252.839,252.839S0,392.478,0,252.839,113.2,0,252.839,0Z" transform="translate(1024.161 92.323)"/><path class="d" d="M193.5,0C300.367,0,387,86.633,387,193.5S300.367,387,193.5,387,0,300.367,0,193.5,86.633,0,193.5,0Z" transform="translate(1391 66)"/></g></svg>