<svg xmlns="http://www.w3.org/2000/svg" width="35" height="35" viewBox="0 0 35 35"><defs><style>.a{fill:#fff;}.b{fill:#090d7c;}</style></defs><g transform="translate(-1218 -219)"><circle class="a" cx="17.5" cy="17.5" r="17.5" transform="translate(1218 219)"/><path class="b" d="M7.581,2.145a1,1,0,0,1,1.838,0l1.473,3.438a1,1,0,0,0,.525.525l3.438,1.473a1,1,0,0,1,0,1.838l-3.438,1.473a1,1,0,0,0-.525.525L9.419,14.855a1,1,0,0,1-1.838,0L6.108,11.418a1,1,0,0,0-.525-.525L2.145,9.419a1,1,0,0,1,0-1.838L5.582,6.108a1,1,0,0,0,.525-.525Z" transform="translate(1227 228)"/></g></svg>