<?xml version="1.0" standalone="no"?>
<!DOCTYPE svg PUBLIC "-//W3C//DTD SVG 20010904//EN"
 "http://www.w3.org/TR/2001/REC-SVG-20010904/DTD/svg10.dtd">
<svg version="1.0" xmlns="http://www.w3.org/2000/svg"
 width="600.000000pt" height="600.000000pt" viewBox="0 0 600.000000 600.000000"
 preserveAspectRatio="xMidYMid meet">
<metadata>
Created by potrace 1.14, written by Peter Selinger 2001-2017
</metadata>
<g transform="translate(0.000000,600.000000) scale(0.100000,-0.100000)"
fill="#000000" stroke="none">
<path d="M36 5543 c20 -38 55 -102 77 -143 80 -150 115 -217 167 -315 29 -55
65 -122 80 -150 15 -27 53 -99 85 -160 32 -60 76 -144 98 -185 22 -41 60 -113
85 -160 25 -47 59 -112 77 -145 18 -33 58 -109 90 -170 32 -60 63 -119 70
-130 12 -19 23 -20 199 -20 130 0 186 -3 186 -11 0 -14 -29 -72 -39 -79 -5 -2
-16 6 -26 18 -25 33 -59 27 -144 -28 -66 -43 -71 -48 -59 -65 7 -11 128 -192
268 -404 140 -211 259 -383 264 -382 5 1 62 94 127 206 66 113 146 250 178
305 32 55 122 209 200 343 78 133 150 257 161 275 11 17 24 41 29 52 6 11 66
115 134 230 69 116 123 212 121 214 -1 1 -20 3 -41 3 -21 0 -41 2 -46 5 -4 2
4 24 18 48 l26 43 -546 0 c-308 -1 -550 3 -554 8 -34 37 -91 118 -91 127 0 9
174 12 695 11 382 0 695 2 695 6 0 4 28 58 63 121 64 114 120 218 205 379 24
47 49 89 53 95 18 18 8 25 -36 25 -25 0 -45 2 -45 5 0 3 9 23 20 45 11 22 20
42 20 45 0 3 -652 5 -1450 5 l-1450 0 36 -67z"/>
<path d="M3117 5558 c-14 -29 -39 -75 -55 -103 -29 -51 -139 -253 -207 -380
-43 -80 -206 -378 -243 -445 -13 -25 -39 -72 -57 -105 -18 -33 -88 -161 -155
-285 -67 -124 -137 -252 -156 -286 -18 -33 -66 -121 -106 -195 -40 -74 -80
-148 -88 -164 -8 -17 -17 -32 -20 -35 -3 -3 -18 -30 -34 -60 -16 -30 -69 -129
-119 -220 -49 -91 -102 -187 -117 -215 -14 -27 -46 -86 -70 -129 -43 -79 -43
-79 -26 -109 16 -28 16 -31 -1 -49 -16 -18 -16 -22 -2 -46 16 -27 295 -482
452 -737 44 -71 85 -140 91 -152 6 -13 14 -23 19 -23 4 0 7 -4 7 -9 0 -7 138
-237 235 -391 89 -141 125 -203 125 -211 0 -5 5 -9 10 -9 6 0 10 -6 10 -14 0
-7 9 -24 19 -37 10 -14 27 -39 37 -57 21 -35 184 -302 334 -545 l98 -158 21
36 c11 20 21 37 21 39 0 2 23 43 52 92 76 132 122 213 156 274 26 47 131 234
212 375 99 175 448 789 468 825 14 25 120 212 235 415 116 204 218 384 227
400 9 17 55 98 102 180 47 83 98 173 113 200 15 28 54 95 85 150 61 107 93
163 149 263 20 35 41 71 46 80 6 10 23 40 38 67 15 28 31 57 37 65 19 31 95
166 107 190 7 14 17 32 22 40 6 8 37 62 69 120 87 153 100 176 120 213 40 69
88 153 102 179 21 37 421 742 443 781 10 18 32 56 48 85 l29 52 -75 0 -76 0
26 43 c14 24 25 47 25 51 0 3 -163 5 -362 4 l-362 -3 -82 -140 c-44 -77 -175
-302 -289 -500 -115 -198 -269 -463 -342 -589 -73 -125 -133 -230 -133 -233 0
-3 -8 -17 -19 -31 -10 -15 -29 -47 -43 -72 -29 -51 -154 -267 -168 -290 -35
-57 -100 -174 -100 -181 0 -5 -4 -9 -10 -9 -5 0 -10 -5 -10 -10 0 -6 -20 -44
-45 -84 -25 -41 -45 -77 -45 -80 0 -2 -22 -41 -50 -86 -27 -45 -50 -83 -50
-84 0 -2 -43 -76 -95 -165 -52 -90 -95 -166 -95 -169 0 -3 -6 -13 -14 -21 -7
-9 -27 -41 -44 -71 -16 -30 -119 -208 -227 -395 -109 -187 -212 -366 -229
-398 l-31 -58 -20 26 c-21 27 -57 84 -76 121 -9 17 1 40 67 150 42 71 84 141
93 156 9 16 52 88 96 160 313 522 425 711 425 719 0 5 5 9 10 9 6 0 10 4 10 9
0 5 31 60 69 123 37 62 297 496 576 963 280 468 546 912 592 988 45 76 83 140
83 143 0 2 -22 4 -50 4 -27 0 -50 2 -50 5 0 2 11 21 25 41 14 20 25 41 25 45
0 5 -173 9 -384 9 l-384 0 -22 -42 c-12 -24 -33 -63 -46 -88 -24 -42 -74 -135
-154 -288 -20 -37 -58 -110 -86 -162 -28 -52 -80 -149 -114 -215 -35 -66 -66
-124 -70 -130 -4 -5 -31 -55 -60 -110 -71 -136 -130 -247 -172 -325 -19 -36
-59 -110 -88 -165 -29 -55 -77 -143 -105 -196 -29 -53 -62 -116 -74 -140 -12
-24 -26 -51 -31 -59 -6 -8 -38 -69 -73 -135 -121 -228 -170 -320 -197 -370
-15 -27 -49 -90 -75 -140 -180 -340 -217 -409 -226 -419 -4 -5 -20 17 -35 47
l-28 57 22 42 c11 24 52 102 90 173 38 72 99 189 137 260 38 72 85 162 105
200 97 184 142 269 200 380 35 66 79 149 98 185 19 36 66 126 105 200 39 74
90 171 113 215 23 44 64 121 89 170 26 50 68 128 93 175 24 47 74 141 109 210
36 69 75 143 88 165 12 22 57 108 100 190 43 83 86 165 97 183 l20 32 -51 0
-51 0 25 50 25 50 -388 0 -388 0 -27 -52z"/>
</g>
</svg>
