<?xml version="1.0" standalone="no"?>
<!DOCTYPE svg PUBLIC "-//W3C//DTD SVG 20010904//EN"
 "http://www.w3.org/TR/2001/REC-SVG-20010904/DTD/svg10.dtd">
<svg version="1.0" xmlns="http://www.w3.org/2000/svg"
 width="600.000000pt" height="600.000000pt" viewBox="0 0 600.000000 600.000000"
 preserveAspectRatio="xMidYMid meet">
<metadata>
Created by potrace 1.14, written by Peter Selinger 2001-2017
</metadata>
<g transform="translate(0.000000,600.000000) scale(0.100000,-0.100000)"
fill="#000000" stroke="none">
<path d="M2759 5996 c-2 -2 -46 -7 -97 -10 -51 -4 -100 -9 -110 -11 -9 -1 -39
-6 -67 -9 -94 -13 -120 -17 -235 -41 -435 -89 -814 -255 -1149 -503 -132 -97
-160 -122 -292 -253 -320 -318 -563 -752 -690 -1227 -24 -88 -65 -281 -73
-337 -3 -22 -7 -57 -11 -77 -3 -21 -7 -53 -10 -72 -27 -193 -27 -744 -1 -916
2 -14 7 -47 11 -75 22 -175 79 -410 146 -601 46 -132 51 -145 120 -290 335
-707 957 -1224 1736 -1443 105 -29 272 -69 323 -76 14 -2 39 -6 55 -9 58 -10
186 -26 268 -33 104 -10 543 -10 662 -1 122 10 240 26 375 53 41 9 84 17 95
19 11 2 40 9 65 16 25 7 52 14 60 15 116 25 377 125 550 211 586 293 1021 762
1273 1374 72 177 156 468 183 634 3 21 8 48 10 60 47 239 54 803 14 1101 -27
199 -41 269 -86 442 -147 563 -418 1014 -825 1373 -204 180 -478 348 -741 454
-102 41 -320 112 -368 121 -18 3 -36 8 -40 10 -24 15 -305 65 -445 80 -33 4
-71 9 -85 12 -28 6 -616 14 -621 9z m566 -550 c392 -43 696 -129 975 -274 223
-116 398 -251 580 -449 44 -48 170 -209 170 -218 0 -2 13 -23 29 -47 40 -59
135 -241 161 -308 12 -30 28 -68 35 -85 20 -45 86 -257 100 -325 26 -120 35
-167 45 -235 6 -44 13 -93 15 -110 26 -170 26 -650 1 -808 -3 -18 -13 -77 -21
-132 -101 -629 -432 -1170 -915 -1495 l-88 -59 -1 1187 c0 653 0 1207 0 1232
-1 50 14 37 -151 128 -30 16 -128 71 -218 121 -90 50 -165 91 -168 91 -2 0 -4
-675 -4 -1499 l0 -1499 -34 -12 c-18 -6 -43 -13 -55 -15 -13 -2 -31 -7 -41
-10 -21 -7 -34 -9 -145 -30 -112 -20 -146 -26 -272 -40 l-53 -6 -2 1976 -3
1976 -60 33 c-33 18 -82 45 -110 61 -121 68 -234 130 -285 158 -30 16 -61 34
-67 40 -10 7 -13 -417 -13 -2116 l0 -2126 -22 4 c-13 2 -45 6 -73 9 -27 2 -77
9 -110 15 -33 6 -76 13 -95 16 -51 9 -157 33 -217 50 l-53 16 -2 1409 -3 1409
-265 -148 -265 -148 -3 -1141 c-1 -628 -5 -1142 -8 -1142 -4 0 -38 21 -78 47
-487 324 -808 817 -936 1436 -17 85 -23 121 -36 217 -25 196 -25 633 0 790 2
14 7 48 11 75 24 184 95 454 162 615 152 368 342 627 644 875 93 77 291 196
435 262 210 97 497 180 721 208 26 4 59 8 73 11 14 2 68 7 120 10 52 4 96 8
98 9 4 4 458 -4 497 -9z"/>
</g>
</svg>
